<svg width="461" height="473" viewBox="0 0 461 473" fill="none" xmlns="http://www.w3.org/2000/svg">
<path d="M297.262 299.275L289.724 276.15C289.531 275.476 289.338 274.802 289.338 274.031L286.149 151.662V164.092C286.149 168.524 285.375 173.053 283.829 177.292L267.98 222.289L272.523 229.034C283.829 245.703 289.821 265.263 289.821 285.304C289.821 290.122 289.338 294.939 288.371 299.564L283.829 321.822H290.981C294.653 321.822 297.649 318.835 297.649 315.173V302.648C297.842 301.491 297.649 300.335 297.262 299.275Z" fill="#FFCBC9"/>
<path d="M312.53 155.703C310.5 140.287 298.517 141.732 296.488 126.412C294.458 110.996 306.442 109.55 304.412 94.1337C302.383 78.7172 290.4 80.1625 288.37 64.8424V55.4961H176.269V64.8424C174.24 80.2589 162.256 78.8136 160.227 94.1337C158.198 109.55 170.181 110.996 168.151 126.412C166.122 141.829 154.139 140.383 152.109 155.703V159.365C152.109 166.591 158.198 172.373 165.639 172.373H297.068C305.572 172.373 312.433 165.724 312.433 157.631L312.53 155.703Z" fill="#474748"/>
<path d="M284.405 106.178C289.237 95.4827 260.826 63.4934 253.481 55.4961H247.199L216.662 68.022L178.393 78.0427C178.393 78.0427 192.985 112.152 191.342 121.305C189.699 130.459 174.43 145.875 186.124 164.183C188.056 167.266 192.019 169.964 197.141 172.373H291.17C301.027 154.451 296.389 145.779 289.914 137.878C281.796 127.857 278.8 118.511 284.405 106.178Z" fill="#30302F"/>
<path d="M229.42 317.1H234.928H269.622L261.407 376.839L255.223 410.273L255.899 416.825L252.807 434.843C250.68 433.88 248.361 433.302 245.849 433.302H236.668C234.832 433.302 233.092 433.591 231.449 434.169L229.517 416.729L230.87 409.502L229.517 376.453L229.42 317.1Z" fill="#FFCBC9"/>
<path d="M223.623 437.153L224.106 436.19L229.324 416.727L231.257 434.263L232.707 441.393H251.261L252.614 434.745L255.707 416.727L259.089 436.19L259.476 437.153C259.959 438.31 260.249 439.466 260.249 440.719C260.442 445.536 256.576 449.583 251.745 449.583H231.16C226.425 449.583 222.656 445.825 222.656 441.104C222.656 439.755 223.043 438.406 223.623 437.153Z" fill="#F9A7A7"/>
<path d="M222.657 440.911C222.657 439.562 223.044 438.31 223.624 437.153L224.107 436.19L229.325 416.727L231.258 434.166C232.901 433.588 234.64 433.299 236.477 433.299H245.657C248.17 433.299 250.489 433.877 252.615 434.841L255.708 416.823L259.09 436.286L259.477 437.25C259.96 438.406 260.25 439.562 260.25 440.815C260.25 441.297 260.25 441.682 260.153 442.164C260.153 442.26 260.153 442.26 260.153 442.356C260.153 442.646 260.056 442.935 259.96 443.32C259.863 443.513 259.863 443.802 259.766 443.995C259.67 444.284 259.573 444.573 259.38 444.862C259.283 445.054 259.187 445.247 259.09 445.536C258.993 445.825 258.8 446.018 258.607 446.211C258.414 446.403 258.317 446.596 258.124 446.789C257.93 446.981 257.737 447.174 257.544 447.367C257.351 447.56 257.157 447.752 256.867 447.945C256.674 448.138 256.481 448.234 256.288 448.427C255.998 448.619 255.804 448.716 255.514 448.909C255.321 449.005 255.128 449.101 254.935 449.198C254.645 449.294 254.258 449.39 253.872 449.487C253.678 449.583 253.485 449.583 253.292 449.679C252.712 449.776 252.229 449.872 251.649 449.872H231.065C229.325 449.872 227.682 449.294 226.329 448.427C225.46 447.849 224.687 447.078 224.01 446.114C223.044 444.765 222.561 443.127 222.561 441.393C222.657 441.008 222.657 441.008 222.657 440.911Z" fill="#404040"/>
<path d="M239.663 340.223H234.154H199.461L207.675 399.962L213.86 433.396L213.184 439.948L216.276 457.966C218.402 457.003 220.721 456.425 223.234 456.425H232.415C234.251 456.425 235.99 456.714 237.633 457.292L239.566 439.852L238.213 432.625L239.566 399.576L239.663 340.223Z" fill="#FFCBC9"/>
<path d="M269.043 137.112H252.615V125.164C246.913 127.573 240.728 128.922 234.157 128.922C227.585 128.922 221.4 127.573 215.699 125.164V137.112H199.27C189.799 137.112 182.068 143.664 182.068 151.758V164.091C182.068 168.523 182.841 173.052 184.388 177.291L200.236 222.288H234.157H268.077L283.926 177.291C285.472 173.052 286.245 168.523 286.245 164.091V151.661C286.245 143.568 278.514 137.112 269.043 137.112Z" fill="#FFCBC9"/>
<path d="M281.411 64.8459C281.314 64.8459 281.218 64.8459 281.121 64.8459V60.51C281.121 34.88 260.15 14.1641 234.155 14.1641C208.159 14.1641 187.188 34.9764 187.188 60.51V64.8459C187.092 64.8459 186.995 64.8459 186.898 64.8459C178.974 64.8459 172.596 71.2052 172.596 79.0098C172.596 86.8144 178.974 93.1737 186.898 93.1737C187.381 93.1737 187.961 93.1737 188.444 93.0773C193.276 113.601 211.928 128.921 234.155 128.921C256.382 128.921 275.033 113.601 279.865 93.0773C280.348 93.1737 280.928 93.1737 281.411 93.1737C289.335 93.1737 295.714 86.8144 295.714 79.0098C295.714 71.1088 289.335 64.8459 281.411 64.8459Z" fill="#FFCBC9"/>
<path d="M234.157 128.823C256.384 128.823 275.035 113.503 279.867 92.9797C280.35 93.076 280.93 93.076 281.413 93.076C289.338 93.076 295.716 86.7167 295.716 78.9121C295.716 71.1075 289.338 64.7482 281.413 64.7482C281.317 64.7482 281.22 64.7482 281.123 64.7482V60.4123C281.123 34.7823 260.153 14.0664 234.157 14.0664C227.199 14.0664 220.531 15.6081 214.539 18.3059L219.081 62.243C243.724 63.3029 249.522 53.1858 249.522 53.1858C249.522 53.1858 272.522 57.329 273.489 75.3471C274.455 93.3651 262.569 128.823 234.157 128.823Z" fill="#E6B8B8"/>
<g opacity="0.6">
<path opacity="0.6" d="M231.255 434.169C232.898 433.59 234.637 433.301 236.473 433.301H231.158L231.255 434.169Z" fill="#E6B8B8"/>
<path opacity="0.6" d="M269.524 317.096H263.435L255.221 376.835L249.036 410.269L249.713 416.821L246.91 433.394C249.036 433.49 250.969 434.069 252.805 434.936L255.898 416.918L255.221 410.366L261.406 376.931L269.524 317.096Z" fill="#E6B8B8"/>
</g>
<path d="M272.619 229.033L268.077 222.288L283.926 177.291C285.472 173.052 286.246 168.523 286.246 164.091V151.661C286.246 150.698 286.149 149.831 285.956 148.867H182.552C182.359 149.734 182.262 150.698 182.262 151.661V164.091C182.262 168.523 183.035 173.052 184.581 177.291L200.43 222.288L195.888 229.033C184.581 245.702 178.59 265.262 178.59 285.303C178.59 290.121 179.073 294.939 180.039 299.564L188.254 340.128H234.447H280.64L288.855 299.564C289.821 294.842 290.304 290.025 290.304 285.303C290.014 265.262 283.926 245.606 272.619 229.033Z" fill="#83BCDC"/>
<path d="M212.993 62.8223H178.203C176.077 62.8223 174.338 61.0879 174.338 58.9682V37.096C174.338 16.5728 190.96 0 211.544 0H229.905C239.183 0 246.72 7.51555 246.72 16.7655V29.0987C246.817 47.6948 231.645 62.8223 212.993 62.8223Z" fill="#474748"/>
<path d="M286.344 57.812H279.482C261.411 57.812 246.818 43.2626 246.818 25.2446V14.453C246.818 8.86454 251.36 4.33594 256.965 4.33594H258.995C276.293 4.33594 290.209 18.3072 290.209 35.458V53.9578C290.209 56.0776 288.47 57.812 286.344 57.812Z" fill="#474748"/>
<path d="M245.365 460.28L244.882 459.317L239.664 439.854L237.731 457.39L236.281 464.52H217.727L216.374 457.872L213.281 439.854L209.899 459.317L209.512 460.28C209.029 461.437 208.739 462.593 208.739 463.845C208.546 468.663 212.412 472.71 217.244 472.71H237.828C242.563 472.71 246.332 468.952 246.332 464.231C246.332 462.882 246.042 461.533 245.365 460.28Z" fill="#F9A7A7"/>
<path d="M246.334 464.038C246.334 462.689 245.947 461.437 245.367 460.28L244.884 459.317L239.666 439.854L237.733 457.293C236.09 456.715 234.35 456.426 232.514 456.426H223.237C220.724 456.426 218.405 457.004 216.279 457.968L213.187 439.95L209.804 459.413L209.418 460.377C208.934 461.533 208.645 462.689 208.645 463.942C208.645 464.424 208.645 464.809 208.741 465.291C208.741 465.387 208.741 465.387 208.741 465.483C208.741 465.773 208.838 466.062 208.934 466.447C209.031 466.64 209.031 466.929 209.128 467.121C209.224 467.411 209.321 467.7 209.514 467.989C209.611 468.181 209.708 468.374 209.804 468.663C209.901 468.952 210.094 469.145 210.287 469.338C210.481 469.53 210.577 469.723 210.771 469.916C210.964 470.108 211.157 470.301 211.35 470.494C211.544 470.687 211.737 470.879 212.027 471.072C212.22 471.265 212.413 471.361 212.607 471.554C212.897 471.746 213.09 471.843 213.38 472.035C213.573 472.132 213.766 472.228 213.96 472.325C214.25 472.421 214.636 472.517 215.023 472.614C215.216 472.71 215.409 472.71 215.603 472.806C216.182 472.903 216.666 472.999 217.245 472.999H237.829C239.569 472.999 241.212 472.421 242.565 471.554C243.435 470.976 244.208 470.205 244.884 469.241C245.85 467.892 246.334 466.254 246.334 464.52C246.334 464.135 246.334 464.135 246.334 464.038Z" fill="#404040"/>
<path d="M180.231 103.195C178.588 103.195 177.332 101.943 177.332 100.305V86.4297C177.332 84.7917 178.588 83.5391 180.231 83.5391C181.874 83.5391 183.13 84.7917 183.13 86.4297V100.305C183.13 101.846 181.874 103.195 180.231 103.195Z" fill="#E0EBFC"/>
<path d="M284.409 103.195C282.766 103.195 281.51 101.943 281.51 100.305V86.4297C281.51 84.7917 282.766 83.5391 284.409 83.5391C286.052 83.5391 287.308 84.7917 287.308 86.4297V100.305C287.308 101.846 285.955 103.195 284.409 103.195Z" fill="#E0EBFC"/>
<path d="M180.231 103.195C178.588 103.195 177.332 101.943 177.332 100.305V86.4297C177.332 84.7917 178.588 83.5391 180.231 83.5391C181.874 83.5391 183.13 84.7917 183.13 86.4297V100.305C183.13 101.846 181.874 103.195 180.231 103.195Z" fill="white"/>
<path d="M284.409 103.195C282.766 103.195 281.51 101.943 281.51 100.305V86.4297C281.51 84.7917 282.766 83.5391 284.409 83.5391C286.052 83.5391 287.308 84.7917 287.308 86.4297V100.305C287.308 101.846 285.955 103.195 284.409 103.195Z" fill="white"/>
<path d="M195.694 229.03L195.79 228.837L177.525 202.34C176.559 200.991 176.752 199.064 178.105 197.908L188.542 188.85L184.483 177.288C182.937 173.049 182.164 168.52 182.164 164.088V151.658C182.164 150.695 182.261 149.827 182.454 148.864H184.773L183.42 146.744L147.084 186.923C142.446 192.03 142.446 199.835 147.181 204.845L176.656 237.027C177.525 237.991 177.815 239.34 177.236 240.592L172.693 251.48C171.051 255.527 170.857 259.959 172.21 264.102L178.009 282.217H178.395C178.975 263.332 184.967 244.832 195.694 229.03Z" fill="#FFCBC9"/>
<path d="M382.014 75.3496C382.11 75.735 382.11 76.2168 382.11 76.6022V113.891C382.11 114.373 382.014 114.758 382.014 115.24H407.816V75.3496H382.014Z" fill="#30302F"/>
<path d="M416.514 147.325H451.304C456.136 147.325 460.001 143.47 460.001 138.653V53.4765C460.001 48.6588 456.136 44.8047 451.304 44.8047H416.514C411.682 44.8047 407.816 48.6588 407.816 53.4765V138.556C407.816 143.374 411.682 147.325 416.514 147.325Z" fill="#6B6B6B"/>
<path d="M375.246 69.6641H342.872C339.006 69.6641 335.914 72.7474 335.914 76.6015V113.89C335.914 117.744 339.006 120.828 342.872 120.828H375.246C379.112 120.828 382.204 117.744 382.204 113.89V76.6015C382.204 72.7474 379.015 69.6641 375.246 69.6641Z" fill="#6B6B6B"/>
<path d="M420.379 44.8046H447.341V34.9765C447.341 33.0495 445.795 31.5078 443.862 31.5078H423.858C421.925 31.5078 420.379 33.0495 420.379 34.9765V44.8046Z" fill="#ED6E24"/>
<path d="M407.817 115.24H394.287V75.3496H407.817V115.24Z" fill="#30302F"/>
<path d="M77.9881 230.67C77.8915 231.055 77.8915 231.537 77.8915 232.019V269.308C77.8915 269.789 77.9881 270.175 77.9881 270.657H52.1855V230.766L77.9881 230.67Z" fill="#30302F"/>
<path d="M43.4875 302.644H8.6975C3.86555 302.644 0 298.79 0 293.972V208.892C0 204.075 3.86555 200.221 8.6975 200.221H43.4875C48.3194 200.221 52.185 204.075 52.185 208.892V293.972C52.185 298.694 48.3194 302.644 43.4875 302.644Z" fill="#6B6B6B"/>
<path d="M84.8488 224.98H117.223C121.088 224.98 124.181 228.064 124.181 231.918V269.207C124.181 273.061 121.088 276.144 117.223 276.144H84.8488C80.9833 276.144 77.8908 273.061 77.8908 269.207V231.918C77.7942 228.064 80.9833 224.98 84.8488 224.98Z" fill="#6B6B6B"/>
<path d="M39.6224 200.125H12.6602V190.297C12.6602 188.37 14.2064 186.828 16.1392 186.828H36.1434C38.0762 186.828 39.6224 188.37 39.6224 190.297V200.125Z" fill="#ED6E24"/>
<path d="M52.1855 230.67H65.715V270.56H52.1855V230.67Z" fill="#30302F"/>
<path d="M60.3981 200.515V200.611C60.0115 202.153 60.8813 203.695 62.4275 204.08L71.0284 206.393C72.5746 206.778 74.1208 205.911 74.5073 204.369V204.273C74.8939 202.731 74.0242 201.189 72.4779 200.804L63.8771 198.492C62.3309 198.106 60.7846 198.973 60.3981 200.515Z" fill="#83BCDC" fill-opacity="0.42"/>
<path d="M58.853 186.54C57.9832 185.095 58.4664 183.361 59.8194 182.493L67.5505 178.061C68.9034 177.29 70.6429 177.772 71.5127 179.121L71.6093 179.217C72.3824 180.566 71.8992 182.301 70.5463 183.168L62.8152 187.6C61.3656 188.371 59.6261 187.986 58.853 186.54Z" fill="#83BCDC" fill-opacity="0.42"/>
<path d="M47.5456 178.448H47.449C45.9028 178.062 45.033 176.424 45.4196 174.979L47.7389 166.404C48.1255 164.862 49.7683 163.995 51.2179 164.38H51.3145C52.8608 164.766 53.7305 166.404 53.3439 167.849L51.0246 176.424C50.6381 177.87 49.0918 178.833 47.5456 178.448Z" fill="#83BCDC" fill-opacity="0.42"/>
<path d="M399.603 45.1951V45.2914C399.99 46.8331 399.12 48.3747 397.574 48.7602L388.973 51.0726C387.427 51.458 385.88 50.5909 385.494 49.0492V48.9529C385.107 47.4112 385.977 45.8696 387.523 45.4841L396.124 43.1717C397.67 42.6899 399.217 43.6534 399.603 45.1951Z" fill="#83BCDC" fill-opacity="0.42"/>
<path d="M401.147 31.2181C402.017 29.7728 401.533 28.0384 400.18 27.1712L392.449 22.739C391.096 21.9681 389.357 22.4499 388.487 23.7989L388.39 23.8952C387.617 25.2442 388.101 26.9785 389.453 27.8457L397.185 32.2779C398.634 33.0488 400.374 32.567 401.147 31.2181Z" fill="#83BCDC" fill-opacity="0.42"/>
<path d="M412.456 23.0298H412.553C414.099 22.6444 414.969 21.1028 414.582 19.5611L412.263 10.9857C411.876 9.44403 410.33 8.57685 408.784 8.96226H408.687C407.141 9.34767 406.271 10.8893 406.658 12.431L408.977 21.0064C409.364 22.5481 410.91 23.4152 412.456 23.0298Z" fill="#83BCDC" fill-opacity="0.42"/>
<path d="M280.351 340.223L288.565 299.658C289.531 294.937 290.015 290.119 290.015 285.398C290.015 265.356 284.023 245.7 272.716 229.127L268.174 222.383L284.023 177.386C285.569 173.146 286.342 168.618 286.342 164.185V158.79L258.317 151.756C246.914 194.248 241.598 222.383 241.598 222.383C241.598 222.383 261.893 266.127 260.443 285.976C258.993 305.728 256.288 340.319 199.657 340.319H199.561H234.351H280.351V340.223Z" fill="#306694"/>
<path d="M244.687 163.415L286.241 161.873V151.66C286.241 143.566 278.51 137.014 269.04 137.014H252.611V125.066C247.489 127.283 241.788 128.535 235.893 128.728C235.893 141.639 249.615 144.048 254.254 144.048C258.989 144.048 258.216 150.118 258.216 150.118L244.687 163.415Z" fill="#E6B8B8"/>
<path d="M175.109 148.867H289.143C290.979 148.867 292.622 150.312 293.202 152.432L298.614 175.461C299.387 178.929 296.874 182.109 293.879 181.531L174.723 158.117C173.757 157.924 173.08 156.961 173.08 155.901V151.18C173.08 149.927 173.95 148.867 175.109 148.867Z" fill="white"/>
<g opacity="0.6">
<path opacity="0.6" d="M239.666 340.227H234.158H232.225V399.677L230.872 432.726L232.225 439.952L230.389 456.429H232.418C234.254 456.429 235.994 456.718 237.637 457.296L239.569 439.856L238.216 432.629L239.569 399.58V340.227H239.666Z" fill="#E6B8B8"/>
<path opacity="0.6" d="M216.376 457.973C218.502 457.01 220.821 456.432 223.334 456.432H216.086L216.376 457.973Z" fill="#E6B8B8"/>
</g>
<path d="M298.613 175.461L293.201 152.432C292.718 150.312 291.075 148.867 289.143 148.867H268.172C270.008 148.867 271.651 150.312 272.231 152.432L277.642 175.461C277.836 176.424 277.836 177.484 277.546 178.351L293.878 181.531C296.874 182.205 299.386 178.929 298.613 175.461Z" fill="#C3D3ED"/>
<path d="M195.791 228.841L177.526 202.344C176.56 200.898 176.753 199.068 178.106 197.911L188.543 188.758L185.451 180.086C178.59 183.94 166.026 191.359 166.413 196.37C166.896 203.211 188.833 229.322 186.997 236.645C185.161 243.968 174.917 253.507 179.169 273.549C181.005 257.554 186.707 242.234 195.791 228.841Z" fill="#E6B8B8"/>
<path d="M233.093 472.71H237.829C239.568 472.71 241.211 472.132 242.564 471.265C243.434 470.687 244.207 469.916 244.883 468.952C245.85 467.603 246.333 465.965 246.333 464.231C246.333 464.135 246.333 464.135 246.333 464.038C246.333 462.689 245.946 461.437 245.367 460.28L244.883 459.317L239.665 439.854L237.732 457.293C236.089 456.715 234.35 456.426 232.514 456.426H232.32C233.963 460.377 236.669 468.278 233.093 472.71Z" fill="#585858"/>
<path d="M253.482 449.396C253.676 449.396 253.869 449.299 254.062 449.203C254.449 449.106 254.739 449.01 255.125 448.914C255.319 448.817 255.512 448.721 255.705 448.625C255.995 448.528 256.285 448.336 256.478 448.143C256.671 448.047 256.865 447.854 257.058 447.661C257.251 447.468 257.445 447.276 257.734 447.083C257.928 446.89 258.121 446.698 258.314 446.505C258.508 446.312 258.604 446.119 258.797 445.927C258.991 445.734 259.087 445.445 259.281 445.252C259.377 445.06 259.474 444.867 259.571 444.578C259.667 444.289 259.861 444 259.957 443.711C260.054 443.518 260.054 443.229 260.15 443.036C260.247 442.747 260.344 442.458 260.344 442.073C260.344 441.976 260.344 441.976 260.344 441.88C260.344 441.495 260.44 441.013 260.44 440.531C260.44 439.278 260.15 438.122 259.667 436.966L259.281 436.002L255.898 416.539L252.806 434.557C251.356 433.883 249.907 433.401 248.264 433.208C248.361 433.305 248.361 433.401 248.554 433.497C251.26 433.979 250.68 448.432 246.428 449.299H251.84C252.323 449.588 252.903 449.492 253.482 449.396Z" fill="#585858"/>
</svg>
