<svg width="31" height="35" viewBox="0 0 31 35" fill="none" xmlns="http://www.w3.org/2000/svg">
<path d="M18.804 21.538H10.0985V25.5361H23.578V28.8893H10.0985V34.8219H5.04372V28.8893H0.410156V25.5361H5.04372V21.538H0.410156V17.282H5.04372V0H18.804C22.0334 0 24.8417 1.03176 27.2286 3.22425C29.6156 5.41674 30.7389 7.86717 30.7389 10.8335C30.7389 13.7998 29.6156 16.3792 27.2286 18.4427C24.8417 20.5062 22.1739 21.538 18.804 21.538ZM10.0985 4.38498V17.411H18.804C20.6293 17.411 22.3143 16.7661 23.7184 15.4764C25.1225 14.1867 25.8245 12.6391 25.8245 10.8335C25.8245 9.0279 25.1225 7.48026 23.8588 6.19056C22.4547 4.90086 20.9102 4.25601 18.9444 4.25601H10.0985V4.38498Z" fill="#585858"/>
</svg>
