<svg width="154" height="153" viewBox="0 0 154 153" fill="none" xmlns="http://www.w3.org/2000/svg">
<g filter="url(#filter0_d_3026_170366)">
<rect x="15.9727" y="8" width="122.996" height="123" rx="20" fill="white"/>
</g>
<path fill-rule="evenodd" clip-rule="evenodd" d="M111.246 46.4462C110.315 44.0755 109.087 42.0646 107.077 40.0538C105.067 38.0429 103.057 36.8152 100.687 35.8839C98.4015 34.9949 95.7777 34.4022 91.9265 34.2117C88.0753 34.0423 86.848 34 77.0509 34C67.2537 34 66.0264 34.0423 62.1752 34.2117C58.3452 34.4022 55.7213 34.9949 53.4149 35.905C51.0449 36.8364 49.0347 38.0641 47.0245 40.0749C45.0143 42.0858 43.787 44.0967 42.8559 46.4674C41.9672 48.7534 41.3747 51.3781 41.1843 55.2094C41.015 59.0618 40.9727 60.2895 40.9727 70.0898C40.9727 79.8902 41.015 81.1179 41.1843 84.9703C41.3747 88.8227 41.9672 91.4474 42.8771 93.7334C43.8081 96.1041 45.0354 98.115 47.0456 100.126C49.0559 102.137 51.0661 103.364 53.436 104.296C55.7213 105.185 58.3452 105.799 62.1964 105.968C66.0475 106.137 67.2748 106.18 77.072 106.18C86.8692 106.18 88.0965 106.137 91.9477 105.968C95.7777 105.799 98.4015 105.185 100.708 104.296C103.078 103.364 105.088 102.137 107.098 100.126C109.109 98.115 110.336 96.1041 111.267 93.7334C112.156 91.4474 112.769 88.8227 112.939 84.9703C113.108 81.1179 113.15 79.8902 113.15 70.0898C113.15 60.2895 113.108 59.0618 112.939 55.2094C112.748 51.3781 112.135 48.7534 111.246 46.4462ZM77.0509 88.6322C66.8093 88.6322 58.5145 80.3347 58.5145 70.0898C58.5145 59.845 66.8093 51.5475 77.0509 51.5475C87.2924 51.5475 95.5872 59.845 95.5872 70.0898C95.5872 80.3347 87.2924 88.6322 77.0509 88.6322ZM96.3278 55.167C93.9367 55.167 91.99 53.2197 91.99 50.8278C91.99 48.4359 93.9367 46.4886 96.3278 46.4886C98.7189 46.4886 100.666 48.4359 100.666 50.8278C100.645 53.2197 98.7189 55.167 96.3278 55.167ZM89.091 70.0898C89.091 76.7363 83.7163 82.1127 77.072 82.1127C70.4277 82.1127 65.053 76.7363 65.053 70.0898C65.053 63.4434 70.4277 58.0669 77.072 58.0669C83.6952 58.0669 89.091 63.4434 89.091 70.0898Z" fill="#83BCDC"/>
<defs>
<filter id="filter0_d_3026_170366" x="0.972656" y="0" width="152.996" height="153" filterUnits="userSpaceOnUse" color-interpolation-filters="sRGB">
<feFlood flood-opacity="0" result="BackgroundImageFix"/>
<feColorMatrix in="SourceAlpha" type="matrix" values="0 0 0 0 0 0 0 0 0 0 0 0 0 0 0 0 0 0 127 0" result="hardAlpha"/>
<feOffset dy="7"/>
<feGaussianBlur stdDeviation="7.5"/>
<feComposite in2="hardAlpha" operator="out"/>
<feColorMatrix type="matrix" values="0 0 0 0 0.38533 0 0 0 0 0.439755 0 0 0 0 0.479167 0 0 0 0.18 0"/>
<feBlend mode="normal" in2="BackgroundImageFix" result="effect1_dropShadow_3026_170366"/>
<feBlend mode="normal" in="SourceGraphic" in2="effect1_dropShadow_3026_170366" result="shape"/>
</filter>
</defs>
</svg>
