<svg width="154" height="153" viewBox="0 0 154 153" fill="none" xmlns="http://www.w3.org/2000/svg">
<g filter="url(#filter0_d_3026_170365)">
<rect x="15.9688" y="8" width="122.996" height="123" rx="20" fill="white"/>
</g>
<path fill-rule="evenodd" clip-rule="evenodd" d="M118.594 41.7451C118.385 44.5471 116.665 54.3418 114.97 64.9162L109.626 96.2984C109.626 96.2984 109.209 100.903 105.56 101.683C101.936 102.487 95.9404 98.8811 94.8716 98.0771C94.0113 97.4679 78.8397 88.4773 73.2872 84.0916C71.8013 82.8977 70.0808 80.4855 73.4957 77.7079C81.1858 71.105 90.3878 62.9183 95.9404 57.7286C98.495 55.3408 101.076 49.7368 90.3879 56.5347L60.2531 75.515C60.2531 75.515 56.8382 77.513 50.4254 75.71C44.0127 73.907 36.5311 71.5192 36.5311 71.5192C36.5311 71.5192 31.3957 68.5223 40.1546 65.3305L89.9708 46.1552C94.8976 44.1572 111.555 37.7736 111.555 37.7736C111.555 37.7736 119.245 34.9716 118.594 41.7451Z" fill="#83BCDC"/>
<defs>
<filter id="filter0_d_3026_170365" x="0.96875" y="0" width="152.996" height="153" filterUnits="userSpaceOnUse" color-interpolation-filters="sRGB">
<feFlood flood-opacity="0" result="BackgroundImageFix"/>
<feColorMatrix in="SourceAlpha" type="matrix" values="0 0 0 0 0 0 0 0 0 0 0 0 0 0 0 0 0 0 127 0" result="hardAlpha"/>
<feOffset dy="7"/>
<feGaussianBlur stdDeviation="7.5"/>
<feComposite in2="hardAlpha" operator="out"/>
<feColorMatrix type="matrix" values="0 0 0 0 0.38533 0 0 0 0 0.439755 0 0 0 0 0.479167 0 0 0 0.18 0"/>
<feBlend mode="normal" in2="BackgroundImageFix" result="effect1_dropShadow_3026_170365"/>
<feBlend mode="normal" in="SourceGraphic" in2="effect1_dropShadow_3026_170365" result="shape"/>
</filter>
</defs>
</svg>
