<svg width="30" height="30" viewBox="0 0 30 30" fill="none" xmlns="http://www.w3.org/2000/svg">
<path fill-rule="evenodd" clip-rule="evenodd" d="M1 15C1 22.713 7.28698 29 15 29C22.8594 29 29 22.7197 29 15C29 7.28698 22.713 1 15 1C7.28698 1 1 7.28698 1 15ZM0 15C0 23.2653 6.73469 30 15 30C23.4184 30 30 23.2653 30 15C30 6.7347 23.2653 0 15 0C6.73469 0 0 6.7347 0 15Z" fill="#56AEDB"/>
<path fill-rule="evenodd" clip-rule="evenodd" d="M10.8105 19.323C11.0839 19.5964 11.5271 19.5964 11.8004 19.323L15.0667 16.0567L18.3332 19.3232C18.6066 19.5966 19.0498 19.5966 19.3232 19.3232C19.5966 19.0498 19.5966 18.6066 19.3232 18.3333L16.0567 15.0668L19.323 11.8004C19.5964 11.5271 19.5964 11.0839 19.323 10.8105C19.0496 10.5371 18.6064 10.5371 18.333 10.8105L15.0667 14.0768L11.8006 10.8107C11.5273 10.5373 11.0841 10.5373 10.8107 10.8107C10.5373 11.0841 10.5373 11.5273 10.8107 11.8006L14.0768 15.0668L10.8105 18.333C10.5371 18.6064 10.5371 19.0496 10.8105 19.323Z" fill="#56AEDB"/>
</svg>
