<svg width="93" height="35" viewBox="0 0 93 35" fill="none" xmlns="http://www.w3.org/2000/svg">
<path d="M11.686 19.7402H15.4859V34.6284H11.686V26.6038L8.06986 32.5917H7.68169L4.08602 26.6242V34.6284H0.265625V19.7402H4.08602L7.86556 26.0947L11.686 19.7402Z" fill="#303030"/>
<path d="M10.2359 0.0449219H5.57791L0.654297 14.9331H4.80157L5.4349 12.7945H10.3994L11.0327 14.9331H15.1391L10.2359 0.0449219ZM6.41554 9.51548L7.90693 4.46452L9.41875 9.51548H6.41554Z" fill="#47A7E3"/>
<path d="M22.3293 0.0449219H16.2411V9.92282H20.1637V3.73131H22.3088C23.3508 3.73131 24.1884 4.07755 24.8422 4.77002C25.4959 5.46249 25.8228 6.35863 25.8228 7.49917C25.8228 8.63971 25.4959 9.53585 24.8422 10.2283C24.1884 10.9208 23.3508 11.267 22.3088 11.267H21.9207H20.1433H16.2207V14.9534H22.3088C24.3723 14.9534 26.0884 14.2406 27.4776 12.8149C28.8669 11.3892 29.5615 9.61732 29.5615 7.51954C29.5615 5.40139 28.8669 3.62948 27.4776 2.22417C26.1088 0.75776 24.3927 0.0449219 22.3293 0.0449219Z" fill="#47A7E3"/>
<path d="M37.428 0.0449219H31.3398V3.73131H35.2624H36.7946H37.428C38.4699 3.73131 39.3075 4.07755 39.9613 4.77002C40.6151 5.46249 40.9419 6.35863 40.9419 7.49917C40.9419 8.63971 40.6151 9.53585 39.9613 10.2283C39.3075 10.9208 38.4699 11.267 37.428 11.267H35.2828V5.05515H31.3603V14.9331H37.4484C39.5118 14.9331 41.228 14.2202 42.6172 12.7945C44.0064 11.3689 44.701 9.59695 44.701 7.49917C44.701 5.38102 44.0064 3.60911 42.6172 2.2038C41.2075 0.75776 39.4914 0.0449219 37.428 0.0449219Z" fill="#47A7E3"/>
<path d="M69.2988 23.4266H72.9967V34.6284H76.8171V23.4266H80.4945V19.7402H69.2988V23.4266Z" fill="#303030"/>
<path d="M92.0571 28.3755C91.7915 27.8256 91.4033 27.3775 90.8926 27.0312C90.3614 26.685 89.8915 26.4202 89.442 26.2369C88.9926 26.0536 88.4205 25.85 87.6851 25.6463C86.684 25.3408 85.9894 25.0964 85.6421 24.852C85.2948 24.628 85.1109 24.3428 85.1109 24.017C85.1109 23.7318 85.2335 23.5078 85.4582 23.3245C85.6829 23.1412 86.0302 23.0394 86.5001 23.0394C87.5829 23.0394 88.3593 23.5893 88.8291 24.6891L92.0366 22.8153C91.5259 21.7155 90.7904 20.8601 89.8098 20.2898C88.8496 19.6992 87.7259 19.4141 86.4797 19.4141C85.0087 19.4141 83.7625 19.8418 82.7819 20.6972C81.8012 21.5526 81.2905 22.6524 81.2905 24.0373C81.2905 25.3204 81.6786 26.3184 82.4754 27.0312C83.2722 27.7441 84.355 28.294 85.7238 28.7013C86.684 28.9661 87.3173 29.1698 87.6033 29.2716C88.2775 29.5364 88.6044 29.903 88.6044 30.3307C88.6044 31.0028 88.0119 31.3286 86.8474 31.3286C85.4378 31.3286 84.4571 30.6769 83.9055 29.3531L80.6367 31.2472C81.0453 32.3877 81.7808 33.2839 82.8023 33.956C83.8442 34.6281 85.1518 34.9539 86.7249 34.9539C88.441 34.9539 89.8098 34.5466 90.8517 33.7116C91.8936 32.8969 92.4044 31.7563 92.4044 30.2899C92.4452 29.5567 92.3227 28.905 92.0571 28.3755Z" fill="#303030"/>
<path d="M26.15 19.7402H21.492L16.5684 34.6284H20.7156L21.349 32.4899H26.3134L26.9468 34.6284H31.0736L26.15 19.7402ZM22.3296 29.2108L23.821 24.1598L25.3328 29.2108H22.3296Z" fill="#303030"/>
<path d="M62.6593 28.8646H67.8077V25.3615H62.6593V23.3044H68.3389V19.7402H58.8594V34.6284H68.441V31.0642H62.6593V28.8646Z" fill="#303030"/>
<path d="M57.5504 19.7402H53.2805L49.2149 25.9928V19.7402H45.3945V34.6284H49.2149V27.9684L53.5052 34.6284H57.7547L52.8106 26.9704L57.5504 19.7402Z" fill="#303030"/>
<path d="M40.982 29.1293C41.7583 28.6813 42.3917 28.0906 42.8411 27.3574C43.2906 26.6038 43.5153 25.7892 43.5153 24.893C43.5153 23.4063 43.0046 22.1843 41.9626 21.2066C40.9411 20.229 39.6541 19.7402 38.1422 19.7402H37.8971H37.3046H35.9767H33.4025H32.1562V34.6284H35.9767V29.8218H37.3455L39.9401 34.6284H44.0261L40.982 29.1293ZM39.2455 26.1354C38.939 26.4409 38.5713 26.6038 38.1014 26.5835H35.9767V25.6059V23.2433H37.3046H37.8971H38.0809C38.5508 23.2433 38.939 23.4063 39.225 23.7118C39.5315 24.0173 39.6745 24.4246 39.6745 24.9338C39.6949 25.4226 39.5519 25.8299 39.2455 26.1354Z" fill="#303030"/>
</svg>
