<svg width="31" height="35" viewBox="0 0 31 35" fill="none" xmlns="http://www.w3.org/2000/svg">
<path d="M5.06663 20.39V29.8198H0V15.7871C0.449459 16.5814 1.0215 17.335 1.69569 18.0275C2.47202 18.8218 3.30965 19.4735 4.229 19.9827C4.49459 20.1252 4.78061 20.2678 5.06663 20.39Z" fill="#303030"/>
<path d="M30.1546 24.8316C30.1546 27.6218 29.2353 29.9844 27.3966 31.8581C25.5579 33.7523 23.2697 34.6891 20.5321 34.6891H12.4623V21.2878H17.6719V29.8011H20.5321C21.9009 29.8011 23.0246 29.353 23.903 28.4365C24.7815 27.52 25.2106 26.3184 25.2106 24.8112C25.2106 23.3041 24.7815 22.1024 23.903 21.1859C23.045 20.2694 21.9213 19.8214 20.5321 19.8214H9.60208C7.96768 19.8214 6.49672 19.4955 5.18921 18.8234C5.10749 18.7827 5.00534 18.7419 4.92362 18.6808C4.12685 18.2531 3.4118 17.6828 2.73761 16.9904C2.26772 16.5219 1.87956 16.0128 1.53225 15.4832C0.572039 13.9965 0.0612899 12.2856 0 10.3508V9.57686C0.0817198 6.94955 1.00107 4.72957 2.75804 2.93729C4.59674 1.04318 6.88489 0.0859375 9.60208 0.0859375H17.6719V13.4873H12.4623V4.97397H9.60208C8.23327 4.97397 7.10962 5.42204 6.23114 6.33854C5.35265 7.25505 4.92362 8.45669 4.92362 9.96383C4.92362 11.471 5.35265 12.6726 6.23114 13.5891C7.08919 14.5056 8.21284 14.9537 9.60208 14.9537H20.5117C23.2493 14.9537 25.5374 15.8906 27.3761 17.7847C29.2353 19.6788 30.1546 22.021 30.1546 24.8316Z" fill="#303030"/>
</svg>
